<?xml version="1.0" encoding="utf-8"?>
<!-- Generator: Adobe Illustrator 16.0.0, SVG Export Plug-In . SVG Version: 6.00 Build 0)  -->
<!DOCTYPE svg PUBLIC "-//W3C//DTD SVG 1.1//EN" "http://www.w3.org/Graphics/SVG/1.1/DTD/svg11.dtd">
<svg version="1.1" id="Layer_1" xmlns="http://www.w3.org/2000/svg" xmlns:xlink="http://www.w3.org/1999/xlink" x="0px" y="0px"
	 width="400px" height="400px" viewBox="0 0 400 400" enable-background="new 0 0 400 400" xml:space="preserve">
<path fill="#010101" d="M81.561,81.561C113.196,49.924,155.26,32.5,200,32.5c44.74,0,86.803,17.424,118.44,49.06
	c31.635,31.636,49.059,73.699,49.059,118.438c0,44.741-17.424,86.805-49.059,118.441c-31.637,31.635-73.7,49.059-118.441,49.059
	c-44.739,0-86.803-17.424-118.438-49.059C49.924,286.804,32.5,244.74,32.5,200S49.924,113.196,81.561,81.561 M64.64,64.64
	c-74.757,74.757-74.757,195.962,0,270.719c74.757,74.758,195.962,74.758,270.719,0c74.758-74.757,74.758-195.962,0-270.719
	C260.603-10.117,139.397-10.117,64.64,64.64L64.64,64.64z M220.753,179.244h-41.509l-67.299,0.002
	c-11.463,0-20.754,9.291-20.754,20.755c0,11.461,9.293,20.751,20.754,20.751h67.299h41.509h67.299
	c5.732,0,10.922-2.322,14.678-6.078c3.755-3.757,6.079-8.945,6.079-14.675c0-11.462-9.293-20.753-20.757-20.753L220.753,179.244z"/>
</svg>
