<?xml version="1.0" encoding="utf-8"?>
<!-- Generator: Adobe Illustrator 16.0.0, SVG Export Plug-In . SVG Version: 6.00 Build 0)  -->
<!DOCTYPE svg PUBLIC "-//W3C//DTD SVG 1.1//EN" "http://www.w3.org/Graphics/SVG/1.1/DTD/svg11.dtd">
<svg version="1.1" id="Layer_1" xmlns="http://www.w3.org/2000/svg" xmlns:xlink="http://www.w3.org/1999/xlink" x="0px" y="0px"
	 width="133.332px" height="25.903px" viewBox="0 0 133.332 25.903" enable-background="new 0 0 133.332 25.903"
	 xml:space="preserve">
<g>
	<path fill="#FFFFFF" d="M13.84,22.327H8.726V6.984H4.499V2.652h13.569v4.332H13.84V22.327z"/>
	<path fill="#FFFFFF" d="M32.418,10.246V2.652h5.114v19.674h-5.114v-8.063h-7.384v8.063h-5.115V2.652h5.115v7.593H32.418z"/>
	<path fill="#FFFFFF" d="M45.987,6.984v3.288h5.767v4.332h-5.767v3.392h6.08v4.332H40.873V2.652h11.194v4.332H45.987z"/>
	<path fill="#FFFFFF" d="M83.796,11.341c-0.052,2.871-0.261,5.323-2.009,7.776c-1.931,2.688-4.828,3.862-8.115,3.862
		c-6.184,0-10.49-4.202-10.49-10.386C63.182,6.201,67.514,2,73.854,2c4.044,0,7.176,1.827,8.872,5.506l-4.853,2.035
		C77.168,7.662,75.681,6.41,73.62,6.41c-3.366,0-5.114,3.209-5.114,6.21c0,3.053,1.827,6.158,5.192,6.158
		c2.218,0,3.915-1.148,4.123-3.418h-4.175v-4.019H83.796z"/>
	<path fill="#FFFFFF" d="M102.505,22.327h-6.367l-4.827-7.567h-0.052v7.567h-5.114V2.652h7.646c3.888,0,6.836,1.853,6.836,6.054
		c0,2.713-1.514,5.062-4.306,5.558L102.505,22.327z M91.259,11.472h0.496c1.67,0,3.548-0.313,3.548-2.453s-1.878-2.453-3.548-2.453
		h-0.496V11.472z"/>
	<path fill="#FFFFFF" d="M109.002,22.327h-5.114V2.652h5.114V22.327z"/>
	<path fill="#FFFFFF" d="M112.342,2.652h7.254c5.479,0,9.994,4.305,9.994,9.837c0,5.532-4.54,9.837-9.994,9.837h-7.254V2.652z
		 M117.456,17.995h1.148c3.053,0,5.663-1.67,5.663-5.505c0-3.523-2.323-5.506-5.61-5.506h-1.201V17.995z"/>
</g>
</svg>
