<?xml version="1.0" encoding="UTF-8"?>
<svg width="522px" height="107px" viewBox="0 0 522 107" version="1.1" xmlns="http://www.w3.org/2000/svg" xmlns:xlink="http://www.w3.org/1999/xlink">
    <!-- Generator: Sketch 42 (36781) - http://www.bohemiancoding.com/sketch -->
    <title>Vulcanstagram</title>
    <desc>Created with Sketch.</desc>
    <defs></defs>
    <g id="Page-1" stroke="none" stroke-width="1" fill="none" fill-rule="evenodd">
        <path d="M62.9492188,0.505859375 C64.9349058,0.505859375 66.6275972,1.01854956 68.0273438,2.04394531 C69.4270903,3.06934106 70.5826777,4.53417017 71.4941406,6.43847656 C72.4056035,8.34278296 73.0729146,10.6539578 73.4960938,13.3720703 C73.9192729,16.0901829 74.1308594,19.1256343 74.1308594,22.4785156 C74.1308594,25.6035313 73.9518247,28.8749829 73.59375,32.2929688 C73.2356753,35.7109546 72.7067092,39.1695789 72.0068359,42.6689453 C71.3069626,46.1683118 70.4443411,49.626936 69.4189453,53.0449219 C68.3935496,56.4629077 67.2298242,59.7180835 65.9277344,62.8105469 C64.6256445,65.9030103 63.1770913,68.7757029 61.5820312,71.4287109 C59.9869712,74.081719 58.261728,76.3766179 56.40625,78.3134766 C54.550772,80.2503352 52.5732527,81.7639919 50.4736328,82.8544922 C48.3740129,83.9449924 46.1686313,84.4902344 43.8574219,84.4902344 C41.4160034,84.4902344 39.3082771,84.0589236 37.5341797,83.1962891 C35.7600823,82.3336545 34.2627014,81.1617913 33.0419922,79.6806641 C31.821283,78.1995369 30.8365923,76.4905696 30.0878906,74.5537109 C29.339189,72.6168523 28.7613953,70.5742295 28.3544922,68.4257812 C27.9475891,66.277333 27.6790371,64.0882273 27.5488281,61.8583984 C27.4186191,59.6285696 27.3535156,57.5045674 27.3535156,55.4863281 C27.3535156,51.6126108 27.5162744,47.8447449 27.8417969,44.1826172 C28.1673193,40.5204895 28.5335266,36.9804858 28.9404297,33.5625 C29.3473328,30.1445142 29.71354,26.8730625 30.0390625,23.7480469 C30.364585,20.6230312 30.5273438,17.6445454 30.5273438,14.8125 C30.5273438,12.436186 30.3971367,10.4586667 30.1367188,8.87988281 C29.8763008,7.30109888 29.4775417,6.03971826 28.9404297,5.09570312 C28.4033176,4.15168799 27.7278687,3.48437695 26.9140625,3.09375 C26.1002563,2.70312305 25.1399795,2.5078125 24.0332031,2.5078125 C22.6009043,2.5078125 21.1849028,2.83333008 19.7851562,3.484375 C18.3854097,4.13541992 17.0426497,5.0387312 15.7568359,6.19433594 C14.4710222,7.34994067 13.291021,8.7171145 12.2167969,10.2958984 C11.1425728,11.8746824 10.2067097,13.5917876 9.40917969,15.4472656 C8.61164966,17.3027437 7.98502832,19.2477112 7.52929688,21.2822266 C7.07356543,23.3167419 6.84570312,25.3593647 6.84570312,27.4101562 C6.84570312,29.5260522 6.99218604,31.300123 7.28515625,32.7324219 C7.57812646,34.1647207 7.9768855,35.3203081 8.48144531,36.1992188 C8.98600513,37.0781294 9.60448853,37.7128887 10.3369141,38.1035156 C11.0693396,38.4941426 11.8749956,38.6894531 12.7539063,38.6894531 C14.2838618,38.6894531 15.6673115,38.2744182 16.9042969,37.4443359 C18.1412822,36.6142537 19.2154902,35.4423904 20.1269531,33.9287109 C21.038416,32.4150315 21.7871064,30.5921331 22.3730469,28.4599609 C22.9589873,26.3277888 23.3821602,23.9759243 23.6425781,21.4042969 L25.9375,21.5019531 C25.8398433,22.6087295 25.6689465,23.8701101 25.4248047,25.2861328 C25.1806628,26.7021555 24.8307314,28.1344329 24.375,29.5830078 C23.9192686,31.0315828 23.3496128,32.4557222 22.6660156,33.8554688 C21.9824185,35.2552153 21.1360728,36.4921821 20.1269531,37.5664062 C19.1178335,38.6406304 17.9459702,39.5113899 16.6113281,40.1787109 C15.276686,40.846032 13.7304775,41.1796875 11.9726562,41.1796875 C10.7031187,41.1796875 9.38477246,40.9355493 8.01757812,40.4472656 C6.65038379,39.9589819 5.39714111,39.1940156 4.2578125,38.1523438 C3.11848389,37.1106719 2.18262085,35.751636 1.45019531,34.0751953 C0.717769775,32.3987546 0.3515625,30.3724077 0.3515625,27.9960937 C0.3515625,25.652332 0.685218018,23.3411572 1.35253906,21.0625 C2.01986011,18.7838428 2.93130933,16.602875 4.08691406,14.5195312 C5.2425188,12.4361875 6.60969263,10.5156338 8.18847656,8.7578125 C9.7672605,6.99999121 11.4843657,5.47005859 13.3398438,4.16796875 C15.1953218,2.86587891 17.1484272,1.84863647 19.1992188,1.11621094 C21.2500103,0.3837854 23.300771,0.017578125 25.3515625,0.017578125 C34.0755645,0.017578125 38.4375,6.34889502 38.4375,19.0117188 C38.4375,22.1041821 38.299155,25.3919097 38.0224609,28.875 C37.7457668,32.3580903 37.452801,35.9143699 37.1435547,39.5439453 C36.8343083,43.1735208 36.5413425,46.8030417 36.2646484,50.4326172 C35.9879543,54.0621926 35.8496094,57.5533687 35.8496094,60.90625 C35.8496094,65.268251 36.0449199,68.8001167 36.4355469,71.5019531 C36.8261738,74.2037896 37.3958296,76.29524 38.1445312,77.7763672 C38.8932329,79.2574944 39.8046821,80.250323 40.8789062,80.7548828 C41.9531304,81.2594426 43.1738213,81.5117188 44.5410156,81.5117188 C46.5918071,81.5117188 48.6100161,80.7548904 50.5957031,79.2412109 C52.5813901,77.7275315 54.4693921,75.6767708 56.2597656,73.0888672 C58.0501392,70.5009636 59.7021409,67.4736501 61.2158203,64.0068359 C62.7294998,60.5400217 64.039708,56.8453972 65.1464844,52.9228516 C66.2532607,49.0003059 67.1158823,44.9476121 67.734375,40.7646484 C68.3528677,36.5816848 68.6621094,32.4883013 68.6621094,28.484375 C68.6621094,23.9596128 68.4179712,20.1917468 67.9296875,17.1806641 C67.4414038,14.1695813 66.7740928,11.7607512 65.9277344,9.95410156 C65.081376,8.1474519 64.1048232,6.86979541 62.9980469,6.12109375 C61.8912705,5.37239209 60.7031313,4.99804688 59.4335938,4.99804688 C58.5546831,4.99804688 57.7164753,5.15266772 56.9189453,5.46191406 C56.1214153,5.7711604 55.3808628,6.15364355 54.6972656,6.609375 C54.0136685,7.06510645 53.3951851,7.55338281 52.8417969,8.07421875 C52.2884087,8.59505469 51.8326841,9.06705518 51.4746094,9.49023438 L49.4726562,7.9765625 C49.9283877,7.39062207 50.6038367,6.6744834 51.4990234,5.828125 C52.3942102,4.9817666 53.4358665,4.16797266 54.6240234,3.38671875 C55.8121804,2.60546484 57.1142507,1.93001587 58.5302734,1.36035156 C59.9462961,0.790687256 61.4192632,0.505859375 62.9492188,0.505859375 Z M96.5917969,71.4042969 C96.4290356,71.6647148 96.1930354,72.1123015 95.8837891,72.7470703 C95.5745427,73.3818391 95.1839216,74.0898398 94.7119141,74.8710938 C94.2399065,75.6523477 93.6865266,76.4661416 93.0517578,77.3125 C92.416989,78.1588584 91.6927124,78.9238247 90.8789062,79.6074219 C90.0651001,80.291019 89.1617888,80.8606748 88.1689453,81.3164062 C87.1761018,81.7721377 86.07748,82 84.8730469,82 C83.9290317,82 82.952479,81.8046895 81.9433594,81.4140625 C80.9342397,81.0234355 79.9983767,80.3072969 79.1357422,79.265625 C78.2731077,78.2239531 77.5651069,76.7998137 77.0117188,74.9931641 C76.4583306,73.1865144 76.1816406,70.8509258 76.1816406,67.9863281 C76.1816406,65.2519395 76.2792959,62.5094539 76.4746094,59.7587891 C76.6699229,57.0081243 76.9059231,54.493501 77.1826172,52.2148438 C77.4593113,49.9361865 77.7278633,48.0319087 77.9882812,46.5019531 C78.2486992,44.9719976 78.4440098,44.0442725 78.5742188,43.71875 C78.7044277,43.4257798 78.9648418,43.1653657 79.3554688,42.9375 C79.7460957,42.7096343 80.1936824,42.5305996 80.6982422,42.4003906 C81.202802,42.2701816 81.7236301,42.1725264 82.2607422,42.1074219 C82.7978542,42.0423174 83.2617168,42.0097656 83.6523438,42.0097656 C84.1731797,42.0097656 84.5882146,42.1399727 84.8974609,42.4003906 C85.2067073,42.6608086 85.3613281,43.1002573 85.3613281,43.71875 C85.3613281,44.0117202 85.3043625,44.5895139 85.1904297,45.4521484 C85.0764968,46.314783 84.9381519,47.3645771 84.7753906,48.6015625 C84.6126294,49.8385479 84.4417327,51.2057217 84.2626953,52.703125 C84.083658,54.2005283 83.9127612,55.722323 83.75,57.2685547 C83.5872388,58.8147864 83.4488938,60.344719 83.3349609,61.8583984 C83.2210281,63.3720779 83.1640625,64.7473896 83.1640625,65.984375 C83.1640625,69.5325698 83.5465457,72.1692622 84.3115234,73.8945312 C85.0765012,75.6198003 86.3378818,76.4824219 88.0957031,76.4824219 C89.5931064,76.4824219 91.1149011,75.391938 92.6611328,73.2109375 C94.2073645,71.029937 95.5501245,67.8561406 96.6894531,63.6894531 C96.8522144,61.9316318 97.0068352,60.0517678 97.1533203,58.0498047 C97.2998054,56.0478416 97.4381504,54.1435637 97.5683594,52.3369141 C97.6985684,50.5302644 97.8206375,48.9108145 97.9345703,47.4785156 C98.0485032,46.0462168 98.1542964,45.0208364 98.2519531,44.4023438 C98.3496099,43.9466123 98.6100239,43.5641292 99.0332031,43.2548828 C99.4563823,42.9456365 99.9365208,42.7014983 100.473633,42.5224609 C101.010745,42.3434236 101.531573,42.2132166 102.036133,42.1318359 C102.540693,42.0504553 102.923176,42.0097656 103.183594,42.0097656 C103.736982,42.0097656 104.119465,42.1318347 104.331055,42.3759766 C104.542644,42.6201184 104.648438,43.0026016 104.648438,43.5234375 C104.648438,43.9791689 104.607748,44.8499285 104.526367,46.1357422 C104.444987,47.4215559 104.347331,48.9189368 104.233398,50.6279297 L103.867188,56.1210938 C103.736979,58.0742285 103.614909,59.9540925 103.500977,61.7607422 C103.387044,63.5673918 103.289388,65.2031177 103.208008,66.6679688 C103.126627,68.1328198 103.085938,69.2395796 103.085938,69.9882812 C103.085938,72.201834 103.208007,73.943353 103.452148,75.2128906 C103.69629,76.4824282 104.241532,77.1171875 105.087891,77.1171875 C105.706383,77.1171875 106.381832,76.7184285 107.114258,75.9208984 C107.846683,75.1233684 108.644201,74.0084707 109.506836,72.5761719 C110.36947,71.143873 111.305333,69.4430437 112.314453,67.4736328 C113.323573,65.5042219 114.414057,63.347668 115.585938,61.0039062 L116.074219,59.9785156 L118.076172,61.4921875 L117.587891,62.5175781 C116.025383,65.6100415 114.650071,68.368803 113.461914,70.7939453 C112.273757,73.2190876 111.142583,75.2617104 110.068359,76.921875 C108.994135,78.5820396 107.903651,79.8434202 106.796875,80.7060547 C105.690099,81.5686892 104.453132,82 103.085938,82 C101.8164,82 100.766606,81.7558618 99.9365234,81.2675781 C99.1064412,80.7792944 98.4472681,80.0794316 97.9589844,79.1679688 C97.4707007,78.2565059 97.1207693,77.1497461 96.9091797,75.8476562 C96.6975901,74.5455664 96.5917969,73.0644614 96.5917969,71.4042969 Z M126.572266,75.7988281 C127.158206,75.7988281 127.833655,75.416345 128.598633,74.6513672 C129.363611,73.8863894 130.185542,72.8365952 131.064453,71.5019531 C131.943364,70.167311 132.871089,68.6048267 133.847656,66.8144531 C134.824224,65.0240796 135.833328,63.08725 136.875,61.0039062 L137.363281,59.9785156 L139.365234,61.4921875 L138.876953,62.5175781 C137.151684,65.9681162 135.613614,68.9221882 134.262695,71.3798828 C132.911777,73.8375774 131.650396,75.8557864 130.478516,77.4345703 C129.306635,79.0133542 128.191737,80.1689417 127.133789,80.9013672 C126.075841,81.6337927 124.993495,82 123.886719,82 C122.421868,82 121.160487,81.5198616 120.102539,80.5595703 C119.044591,79.5992791 118.165694,77.987967 117.46582,75.7255859 C116.765947,73.4632048 116.245119,70.4765811 115.90332,66.765625 C115.561522,63.0546689 115.390625,58.4648711 115.390625,52.9960938 C115.390625,45.2486592 115.716143,38.5999626 116.367188,33.0498047 C117.018232,27.4996467 117.905268,22.9424006 119.02832,19.3779297 C120.151373,15.8134587 121.453443,13.1930422 122.93457,11.5166016 C124.415698,9.84016089 125.970044,9.00195312 127.597656,9.00195312 C128.574224,9.00195312 129.396156,9.40071216 130.063477,10.1982422 C130.730798,10.9957722 131.064453,12.4361875 131.064453,14.5195312 C131.064453,16.1471436 130.934246,18.0025938 130.673828,20.0859375 C130.41341,22.1692812 130.071617,24.3990767 129.648438,26.7753906 C129.225258,29.1517046 128.720706,31.6175002 128.134766,34.1728516 C127.548825,36.7282029 126.930342,39.26724 126.279297,41.7900391 C125.628252,44.3128381 124.960941,46.7867717 124.277344,49.2119141 C123.593747,51.6370564 122.926436,53.9075415 122.275391,56.0234375 C122.470704,60.0273638 122.690428,63.3069534 122.93457,65.8623047 C123.178712,68.417656 123.471678,70.4277271 123.813477,71.8925781 C124.155275,73.3574292 124.554034,74.3746716 125.009766,74.9443359 C125.465497,75.5140002 125.986325,75.7988281 126.572266,75.7988281 Z M127.890625,15.6914062 C127.890625,15.0078091 127.809246,14.4707051 127.646484,14.0800781 C127.483723,13.6894512 127.223309,13.4941406 126.865234,13.4941406 C126.50716,13.4941406 126.14909,13.9986929 125.791016,15.0078125 C125.432941,16.0169321 125.08301,17.384106 124.741211,19.109375 C124.399412,20.834644 124.090171,22.8365771 123.813477,25.1152344 C123.536782,27.3938916 123.284506,29.8108596 123.056641,32.3662109 C122.828775,34.9215623 122.64974,37.5338408 122.519531,40.203125 C122.389322,42.8724092 122.307943,45.443998 122.275391,47.9179688 C123.056645,45.0533711 123.780921,42.115575 124.448242,39.1044922 C125.115563,36.0934094 125.709633,33.1718892 126.230469,30.3398438 C126.751305,27.5077983 127.158202,24.8304163 127.451172,22.3076172 C127.744142,19.7848181 127.890625,17.5794365 127.890625,15.6914062 Z M153.867188,54.1191406 C154.257814,53.5006479 154.59147,52.7356816 154.868164,51.8242188 C155.144858,50.9127559 155.283203,50.0013066 155.283203,49.0898438 C155.283203,47.9830674 155.006513,47.0227905 154.453125,46.2089844 C153.899737,45.3951782 152.906908,44.9882812 151.474609,44.9882812 C150.530594,44.9882812 149.570317,45.3300747 148.59375,46.0136719 C147.617183,46.697269 146.713871,47.7226494 145.883789,49.0898438 C145.053707,50.4570381 144.378258,52.1822813 143.857422,54.265625 C143.336586,56.3489687 143.076172,58.7903506 143.076172,61.5898438 C143.076172,63.8033965 143.304034,65.8216055 143.759766,67.6445312 C144.215497,69.467457 144.882808,71.0299414 145.761719,72.3320312 C146.640629,73.6341211 147.706699,74.6513635 148.959961,75.3837891 C150.213222,76.1162146 151.621086,76.4824219 153.183594,76.4824219 C154.322922,76.4824219 155.486648,76.1894561 156.674805,75.6035156 C157.862962,75.0175752 159.067377,74.106126 160.288086,72.8691406 C161.508795,71.6321553 162.770176,70.0289812 164.072266,68.0595703 C165.374355,66.0901594 166.708978,63.7382949 168.076172,61.0039062 L168.564453,59.9785156 L170.566406,61.4921875 L170.078125,62.5175781 C168.320304,66.0006685 166.570647,68.9791543 164.829102,71.453125 C163.087556,73.9270957 161.370451,75.9453047 159.677734,77.5078125 C157.985018,79.0703203 156.333016,80.2096318 154.72168,80.9257812 C153.110344,81.6419307 151.555997,82 150.058594,82 C147.942698,82 146.054696,81.5605513 144.394531,80.6816406 C142.734367,79.80273 141.334641,78.6064529 140.195312,77.0927734 C139.055984,75.579094 138.185224,73.8212991 137.583008,71.8193359 C136.980791,69.8173728 136.679688,67.7096465 136.679688,65.4960938 C136.679688,61.9804512 137.159826,58.782241 138.120117,55.9013672 C139.080408,53.0204934 140.325513,50.5546978 141.855469,48.5039062 C143.385424,46.4531147 145.110667,44.8580786 147.03125,43.71875 C148.951833,42.5794214 150.888662,42.0097656 152.841797,42.0097656 C154.3392,42.0097656 155.592443,42.2213521 156.601562,42.6445312 C157.610682,43.0677104 158.424476,43.6048145 159.042969,44.2558594 C159.661461,44.9069043 160.10091,45.6067671 160.361328,46.3554688 C160.621746,47.1041704 160.751953,47.8203091 160.751953,48.5039062 C160.751953,49.1875034 160.60547,49.8955042 160.3125,50.6279297 C160.01953,51.3603552 159.588219,52.0439421 159.018555,52.6787109 C158.44889,53.3134797 157.773441,53.8831355 156.992188,54.3876953 C156.210934,54.8922551 155.332036,55.2584624 154.355469,55.4863281 L153.867188,54.1191406 Z M198.154297,69.890625 C198.154297,71.746103 198.317056,73.3085874 198.642578,74.578125 C198.968101,75.8476626 199.537756,76.4824219 200.351562,76.4824219 C200.839846,76.4824219 201.368812,76.2464216 201.938477,75.7744141 C202.508141,75.3024065 203.167314,74.5293022 203.916016,73.4550781 C204.664717,72.380854 205.519201,70.9892664 206.479492,69.2802734 C207.439783,67.5712805 208.538405,65.4798301 209.775391,63.0058594 L211.240234,59.9785156 L213.242188,61.4921875 L211.777344,64.5195312 C210.410149,67.2539199 209.132493,69.7034397 207.944336,71.8681641 C206.756179,74.0328884 205.625005,75.8639248 204.550781,77.3613281 C203.476557,78.8587314 202.426763,80.0061809 201.401367,80.8037109 C200.375971,81.601241 199.358729,82 198.349609,82 C197.275385,82 196.372074,81.7070342 195.639648,81.1210938 C194.907223,80.5351533 194.296877,79.7294973 193.808594,78.7041016 C193.32031,77.6787058 192.945965,76.4905667 192.685547,75.1396484 C192.425129,73.7887302 192.246094,72.3483149 192.148438,70.8183594 C191.367184,72.3808672 190.504562,73.8375583 189.560547,75.1884766 C188.616532,76.5393948 187.631841,77.719396 186.606445,78.7285156 C185.58105,79.7376353 184.514979,80.5351533 183.408203,81.1210938 C182.301427,81.7070342 181.194667,82 180.087891,82 C178.460278,82 176.881518,81.6582065 175.351562,80.9746094 C173.821607,80.2910122 172.462571,79.249356 171.274414,77.8496094 C170.086257,76.4498628 169.134118,74.6839299 168.417969,72.5517578 C167.701819,70.4195857 167.34375,67.9049624 167.34375,65.0078125 C167.34375,61.6223789 167.783199,58.521824 168.662109,55.7060547 C169.54102,52.8902854 170.729159,50.4651794 172.226562,48.4306641 C173.723966,46.3961487 175.449209,44.8173884 177.402344,43.6943359 C179.355479,42.5712834 181.406239,42.0097656 183.554688,42.0097656 C184.856777,42.0097656 186.061192,42.3027314 187.167969,42.8886719 C188.274745,43.4746123 189.24316,44.182613 190.073242,45.0126953 C190.903324,45.8427776 191.595049,46.721675 192.148438,47.6494141 C192.701826,48.5771531 193.076171,49.3665332 193.271484,50.0175781 L193.857422,45.28125 C193.922526,44.6627573 194.22363,44.1419292 194.760742,43.71875 C195.297854,43.2955708 195.891924,42.9619153 196.542969,42.7177734 C197.194014,42.4736316 197.828773,42.2945969 198.447266,42.1806641 C199.065758,42.0667312 199.505207,42.0097656 199.765625,42.0097656 C200.156252,42.0097656 200.416666,42.0748691 200.546875,42.2050781 C200.677084,42.3352871 200.742188,42.5957012 200.742188,42.9863281 C200.742188,43.4746118 200.603843,44.4593025 200.327148,45.9404297 C200.050454,47.4215569 199.757489,49.3095588 199.448242,51.6044922 C199.138996,53.8994255 198.84603,56.5930835 198.569336,59.6855469 C198.292642,62.7780103 198.154297,66.1796689 198.154297,69.890625 Z M192.783203,57 C192.783203,55.5025967 192.555341,54.0296296 192.099609,52.5810547 C191.643878,51.1324797 191.025395,49.8466853 190.244141,48.7236328 C189.462887,47.6005803 188.559575,46.697269 187.53418,46.0136719 C186.508784,45.3300747 185.426438,44.9882812 184.287109,44.9882812 C182.887363,44.9882812 181.577155,45.3870403 180.356445,46.1845703 C179.135736,46.9821003 178.077804,48.105136 177.182617,49.5537109 C176.28743,51.0022859 175.57943,52.7438049 175.058594,54.7783203 C174.537758,56.8128357 174.277344,59.050769 174.277344,61.4921875 C174.277344,66.3750244 175.04231,70.0940627 176.572266,72.6494141 C178.102221,75.2047654 180.136706,76.4824219 182.675781,76.4824219 C183.782558,76.4824219 184.930007,76.0348352 186.118164,75.1396484 C187.306321,74.2444617 188.396805,72.9586672 189.389648,71.2822266 C190.382492,69.6057859 191.196286,67.5631631 191.831055,65.1542969 C192.465823,62.7454307 192.783203,60.0273589 192.783203,57 Z M230.039062,45.3789062 C229.1276,45.3789062 228.110357,45.7858032 226.987305,46.5996094 C225.864252,47.4134155 224.733079,48.4632097 223.59375,49.7490234 C222.454421,51.0348372 221.3558,52.4752524 220.297852,54.0703125 C219.239904,55.6653726 218.320316,57.2441328 217.539062,58.8066406 C217.441406,61.6712383 217.351888,64.796207 217.270508,68.1816406 C217.189127,71.5670742 217.148438,75.1803193 217.148438,79.0214844 C217.148438,79.5097681 216.928713,79.9410789 216.489258,80.3154297 C216.049802,80.6897805 215.537112,80.9990222 214.951172,81.2431641 C214.365231,81.4873059 213.763024,81.6744785 213.144531,81.8046875 C212.526039,81.9348965 212.021486,82 211.630859,82 C211.142576,82 210.686851,81.8535171 210.263672,81.5605469 C209.840493,81.2675767 209.628906,80.6165415 209.628906,79.6074219 C209.628906,79.1191382 209.677734,78.5087927 209.775391,77.7763672 C209.873047,77.0439417 209.995116,76.2545615 210.141602,75.4082031 C210.288087,74.5618447 210.450845,73.6910852 210.629883,72.7958984 C210.80892,71.9007117 210.979817,71.0625039 211.142578,70.28125 L211.142578,46.4042969 C211.142578,45.753252 211.150716,45.2405618 211.166992,44.8662109 C211.183268,44.4918601 211.240234,44.2070322 211.337891,44.0117188 C211.533204,43.5559873 211.874998,43.197918 212.363281,42.9375 C212.851565,42.677082 213.372393,42.4736335 213.925781,42.3271484 C214.479169,42.1806633 215.016273,42.091146 215.537109,42.0585938 C216.057945,42.0260415 216.464842,42.0097656 216.757812,42.0097656 C217.311201,42.0097656 217.693684,42.1562485 217.905273,42.4492188 C218.116863,42.742189 218.222656,43.2630171 218.222656,44.0117188 C218.222656,43.914062 218.149415,44.7115801 218.00293,46.4042969 C217.856445,48.0970137 217.734375,50.5221196 217.636719,53.6796875 C218.613286,52.1497319 219.671218,50.6849028 220.810547,49.2851562 C221.949875,47.8854097 223.138015,46.6484429 224.375,45.5742188 C225.611985,44.4999946 226.889642,43.637373 228.208008,42.9863281 C229.526374,42.3352832 230.869134,42.0097656 232.236328,42.0097656 C234.677747,42.0097656 236.468093,42.7828699 237.607422,44.3291016 C238.74675,45.8753333 239.316406,47.9667837 239.316406,50.6035156 C239.316406,52.2636802 239.210613,54.1109924 238.999023,56.1455078 C238.787434,58.1800232 238.543296,60.2470598 238.266602,62.3466797 C237.989907,64.4462996 237.745769,66.4970603 237.53418,68.4990234 C237.32259,70.5009866 237.216797,72.3320229 237.216797,73.9921875 C237.216797,76.1406357 237.884108,77.2148438 239.21875,77.2148438 C239.641929,77.2148438 240.138344,76.9951194 240.708008,76.5556641 C241.277672,76.1162087 241.993811,75.2942769 242.856445,74.0898438 C243.71908,72.8854106 244.752598,71.2334089 245.957031,69.1337891 C247.161464,67.0341692 248.593742,64.3242354 250.253906,61.0039062 L250.742188,59.9785156 L252.744141,61.4921875 L252.255859,62.5175781 C250.302725,66.4238477 248.569344,69.6301958 247.055664,72.1367188 C245.541985,74.6432417 244.166673,76.6288989 242.929688,78.09375 C241.692702,79.5586011 240.537115,80.5758435 239.462891,81.1455078 C238.388667,81.7151721 237.314458,82 236.240234,82 C235.556637,82 234.87305,81.9023447 234.189453,81.7070312 C233.505856,81.5117178 232.903648,81.1699243 232.382812,80.6816406 C231.861977,80.1933569 231.438804,79.5341838 231.113281,78.7041016 C230.787759,77.8740193 230.625,76.8079492 230.625,75.5058594 C230.625,73.5527246 230.755207,71.355481 231.015625,68.9140625 C231.276043,66.472644 231.569009,64.0312622 231.894531,61.5898438 C232.220054,59.1484253 232.51302,56.8453884 232.773438,54.6806641 C233.033855,52.5159397 233.164062,50.7500068 233.164062,49.3828125 C233.164062,48.1783794 232.903648,47.2099646 232.382812,46.4775391 C231.861977,45.7451135 231.080734,45.3789062 230.039062,45.3789062 Z M279.257812,65.0078125 C279.257812,67.2213652 278.924157,69.3453674 278.256836,71.3798828 C277.589515,73.4143982 276.612962,75.2210208 275.327148,76.7998047 C274.041335,78.3785886 272.446299,79.6399692 270.541992,80.5839844 C268.637686,81.5279995 266.464856,82 264.023438,82 C262.265616,82 260.694994,81.7151721 259.311523,81.1455078 C257.928053,80.5758435 256.748052,79.8108772 255.771484,78.8505859 C254.794917,77.8902947 254.046227,76.7998108 253.525391,75.5791016 C253.004555,74.3583923 252.744141,73.0970117 252.744141,71.7949219 C252.744141,70.492832 252.996417,69.2802791 253.500977,68.1572266 C254.005536,67.0341741 254.689123,66.0738972 255.551758,65.2763672 C256.414392,64.4788372 257.399083,63.8522158 258.505859,63.3964844 C259.612636,62.9407529 260.784499,62.7128906 262.021484,62.7128906 C262.802738,62.7128906 263.616532,62.8105459 264.462891,63.0058594 L264.462891,64.421875 C263.421219,64.421875 262.403976,64.6334614 261.411133,65.0566406 C260.418289,65.4798198 259.539392,66.0576135 258.774414,66.7900391 C258.009436,67.5224646 257.399091,68.4013621 256.943359,69.4267578 C256.487628,70.4521536 256.259766,71.5507754 256.259766,72.7226562 C256.259766,74.8711045 257.000318,76.5882097 258.481445,77.8740234 C259.962573,79.1598372 261.988919,79.8027344 264.560547,79.8027344 C265.862637,79.8027344 267.050776,79.5504583 268.125,79.0458984 C269.199224,78.5413386 270.118811,77.8414758 270.883789,76.9462891 C271.648767,76.0511023 272.234698,74.9850322 272.641602,73.7480469 C273.048505,72.5110615 273.251953,71.1601636 273.251953,69.6953125 C273.251953,68.2955659 272.975263,66.9934956 272.421875,65.7890625 C271.868487,64.5846294 271.136072,63.4453179 270.224609,62.3710938 C269.313146,61.2968696 268.279628,60.2877651 267.124023,59.34375 C265.968419,58.3997349 264.796555,57.4964236 263.608398,56.6337891 C262.420241,55.7711545 261.256516,54.9329468 260.117188,54.1191406 C258.977859,53.3053345 257.98503,52.4915405 257.138672,51.6777344 L252.255859,62.5175781 L250.253906,61.0039062 L255.234375,50.1152344 C254.029942,48.9759058 253.142906,47.8935598 252.573242,46.8681641 C252.003578,45.8427683 251.71875,44.6139395 251.71875,43.1816406 C251.71875,42.4003867 251.857095,41.6598342 252.133789,40.9599609 C252.410483,40.2600876 252.784828,39.6578801 253.256836,39.1533203 C253.728844,38.6487605 254.274085,38.2500015 254.892578,37.9570312 C255.511071,37.664061 256.162106,37.5175781 256.845703,37.5175781 C258.082688,37.5175781 259.010414,37.8675095 259.628906,38.5673828 C260.247399,39.2672561 260.556641,40.1380156 260.556641,41.1796875 C260.556641,41.6679712 260.507813,42.1806614 260.410156,42.7177734 C260.3125,43.2548855 260.19043,43.7919895 260.043945,44.3291016 C259.89746,44.8662136 259.750977,45.3626279 259.604492,45.8183594 C259.458007,46.2740908 259.335938,46.6647119 259.238281,46.9902344 C260.214849,47.738936 261.386712,48.4632126 262.753906,49.1630859 C264.121101,49.8629592 265.54524,50.5872358 267.026367,51.3359375 C268.507494,52.0846392 269.980461,52.8984331 271.445312,53.7773438 C272.910164,54.6562544 274.220372,55.6328071 275.375977,56.7070312 C276.531581,57.7812554 277.467444,59.0019463 278.183594,60.3691406 C278.899743,61.736335 279.257812,63.2825435 279.257812,65.0078125 Z M256.943359,39.7148438 C256.487628,39.7148438 256.121421,39.8694646 255.844727,40.1787109 C255.568032,40.4879573 255.429688,40.9029922 255.429688,41.4238281 C255.429688,42.0097686 255.57617,42.6608037 255.869141,43.3769531 C256.162111,44.0931025 256.682939,44.7929653 257.431641,45.4765625 C257.757163,44.7929653 258.009439,44.1256543 258.188477,43.4746094 C258.367514,42.8235645 258.457031,42.1725293 258.457031,41.5214844 C258.457031,41.0006484 258.318686,40.5693376 258.041992,40.2275391 C257.765298,39.8857405 257.399091,39.7148438 256.943359,39.7148438 Z M283.066406,65.984375 C283.066406,62.5338369 283.196613,59.0670747 283.457031,55.5839844 C283.717449,52.100894 284.059243,48.5690283 284.482422,44.9882812 L280.039062,44.9882812 L280.576172,42.0097656 L284.873047,42.0097656 C285.328778,38.6894365 285.792641,35.3610193 286.264648,32.0244141 C286.736656,28.6878088 287.167967,25.3431157 287.558594,21.9902344 L292.539062,21.9902344 C292.473958,22.7063838 292.384441,23.7399021 292.270508,25.0908203 C292.156575,26.4417385 292.026368,28.0042229 291.879883,29.7783203 C291.733398,31.5524177 291.595053,33.4892473 291.464844,35.5888672 C291.334635,37.6884871 291.204428,39.8287651 291.074219,42.0097656 L300.546875,42.0097656 L300.058594,44.9882812 L290.878906,44.9882812 C290.748697,46.8437593 290.634766,48.6666577 290.537109,50.4570312 C290.439453,52.2474048 290.349935,53.9482341 290.268555,55.5595703 C290.187174,57.1709065 290.130208,58.6520115 290.097656,60.0029297 C290.065104,61.3538479 290.048828,62.5175732 290.048828,63.4941406 C290.048828,65.9681113 290.12207,68.0351479 290.268555,69.6953125 C290.41504,71.3554771 290.642902,72.6900991 290.952148,73.6992188 C291.261395,74.7083384 291.652016,75.4244771 292.124023,75.8476562 C292.596031,76.2708354 293.141273,76.4824219 293.759766,76.4824219 C294.573572,76.4824219 295.476883,76.067387 296.469727,75.2373047 C297.46257,74.4072224 298.496088,73.2923247 299.570312,71.8925781 C300.644537,70.4928315 301.735021,68.8571057 302.841797,66.9853516 C303.948573,65.1135974 305.022781,63.1198022 306.064453,61.0039062 L306.552734,59.9785156 L308.554688,61.4921875 L308.066406,62.5175781 C306.569003,65.544937 305.07976,68.2630088 303.598633,70.671875 C302.117506,73.0807412 300.660814,75.123364 299.228516,76.7998047 C297.796217,78.4762454 296.396491,79.7620398 295.029297,80.6572266 C293.662103,81.5524133 292.343756,82 291.074219,82 C289.804681,82 288.673508,81.7070342 287.680664,81.1210938 C286.687821,80.5351533 285.849613,79.5992903 285.166016,78.3134766 C284.482418,77.0276628 283.96159,75.3756611 283.603516,73.3574219 C283.245441,71.3391826 283.066406,68.8815249 283.066406,65.984375 Z M336.142578,69.890625 C336.142578,71.746103 336.305337,73.3085874 336.630859,74.578125 C336.956382,75.8476626 337.526038,76.4824219 338.339844,76.4824219 C338.828127,76.4824219 339.357094,76.2464216 339.926758,75.7744141 C340.496422,75.3024065 341.155595,74.5293022 341.904297,73.4550781 C342.652999,72.380854 343.507482,70.9892664 344.467773,69.2802734 C345.428065,67.5712805 346.526687,65.4798301 347.763672,63.0058594 L349.228516,59.9785156 L351.230469,61.4921875 L349.765625,64.5195312 C348.398431,67.2539199 347.120774,69.7034397 345.932617,71.8681641 C344.74446,74.0328884 343.613287,75.8639248 342.539062,77.3613281 C341.464838,78.8587314 340.415044,80.0061809 339.389648,80.8037109 C338.364253,81.601241 337.34701,82 336.337891,82 C335.263667,82 334.360355,81.7070342 333.62793,81.1210938 C332.895504,80.5351533 332.285159,79.7294973 331.796875,78.7041016 C331.308591,77.6787058 330.934246,76.4905667 330.673828,75.1396484 C330.41341,73.7887302 330.234375,72.3483149 330.136719,70.8183594 C329.355465,72.3808672 328.492843,73.8375583 327.548828,75.1884766 C326.604813,76.5393948 325.620122,77.719396 324.594727,78.7285156 C323.569331,79.7376353 322.503261,80.5351533 321.396484,81.1210938 C320.289708,81.7070342 319.182948,82 318.076172,82 C316.44856,82 314.869799,81.6582065 313.339844,80.9746094 C311.809888,80.2910122 310.450852,79.249356 309.262695,77.8496094 C308.074538,76.4498628 307.122399,74.6839299 306.40625,72.5517578 C305.690101,70.4195857 305.332031,67.9049624 305.332031,65.0078125 C305.332031,61.6223789 305.77148,58.521824 306.650391,55.7060547 C307.529301,52.8902854 308.71744,50.4651794 310.214844,48.4306641 C311.712247,46.3961487 313.43749,44.8173884 315.390625,43.6943359 C317.34376,42.5712834 319.394521,42.0097656 321.542969,42.0097656 C322.845059,42.0097656 324.049474,42.3027314 325.15625,42.8886719 C326.263026,43.4746123 327.231441,44.182613 328.061523,45.0126953 C328.891606,45.8427776 329.583331,46.721675 330.136719,47.6494141 C330.690107,48.5771531 331.064452,49.3665332 331.259766,50.0175781 L331.845703,45.28125 C331.910808,44.6627573 332.211911,44.1419292 332.749023,43.71875 C333.286135,43.2955708 333.880205,42.9619153 334.53125,42.7177734 C335.182295,42.4736316 335.817054,42.2945969 336.435547,42.1806641 C337.05404,42.0667312 337.493488,42.0097656 337.753906,42.0097656 C338.144533,42.0097656 338.404947,42.0748691 338.535156,42.2050781 C338.665365,42.3352871 338.730469,42.5957012 338.730469,42.9863281 C338.730469,43.4746118 338.592124,44.4593025 338.31543,45.9404297 C338.038736,47.4215569 337.74577,49.3095588 337.436523,51.6044922 C337.127277,53.8994255 336.834311,56.5930835 336.557617,59.6855469 C336.280923,62.7780103 336.142578,66.1796689 336.142578,69.890625 Z M330.771484,57 C330.771484,55.5025967 330.543622,54.0296296 330.087891,52.5810547 C329.632159,51.1324797 329.013676,49.8466853 328.232422,48.7236328 C327.451168,47.6005803 326.547857,46.697269 325.522461,46.0136719 C324.497065,45.3300747 323.414719,44.9882812 322.275391,44.9882812 C320.875644,44.9882812 319.565436,45.3870403 318.344727,46.1845703 C317.124017,46.9821003 316.066085,48.105136 315.170898,49.5537109 C314.275712,51.0022859 313.567711,52.7438049 313.046875,54.7783203 C312.526039,56.8128357 312.265625,59.050769 312.265625,61.4921875 C312.265625,66.3750244 313.030591,70.0940627 314.560547,72.6494141 C316.090502,75.2047654 318.124987,76.4824219 320.664062,76.4824219 C321.770839,76.4824219 322.918288,76.0348352 324.106445,75.1396484 C325.294602,74.2444617 326.385086,72.9586672 327.37793,71.2822266 C328.370773,69.6057859 329.184567,67.5631631 329.819336,65.1542969 C330.454105,62.7454307 330.771484,60.0273589 330.771484,57 Z M362.851562,100.505859 C362.851562,99.0735605 363.120115,97.6250073 363.657227,96.1601562 C364.194339,94.6953052 364.934891,93.1979243 365.878906,91.6679688 C366.822921,90.1380132 367.921543,88.551115 369.174805,86.9072266 C370.428066,85.2633381 371.787102,83.5625088 373.251953,81.8046875 L373.251953,72.5761719 C372.470699,74.1061274 371.591802,75.4570254 370.615234,76.6289062 C369.638667,77.8007871 368.605149,78.7854778 367.514648,79.5830078 C366.424148,80.3805378 365.301113,80.9827454 364.145508,81.3896484 C362.989903,81.7965515 361.858729,82 360.751953,82 C359.221998,82 357.749031,81.6256548 356.333008,80.8769531 C354.916985,80.1282515 353.655604,78.9970779 352.548828,77.4833984 C351.442052,75.969719 350.563154,74.0573032 349.912109,71.7460938 C349.261064,69.4348843 348.935547,66.7168125 348.935547,63.5917969 C348.935547,60.9550649 349.244789,58.3509243 349.863281,55.7792969 C350.481774,53.2076694 351.409499,50.9046326 352.646484,48.8701172 C353.88347,46.8356018 355.413402,45.1836001 357.236328,43.9140625 C359.059254,42.6445249 361.191394,42.0097656 363.632812,42.0097656 C365.553395,42.0097656 367.35188,42.4003867 369.02832,43.1816406 C370.704761,43.9628945 372.112625,45.1022061 373.251953,46.5996094 L373.251953,46.0136719 C373.251953,45.3951792 373.439126,44.8336614 373.813477,44.3291016 C374.187827,43.8245417 374.659828,43.4013689 375.229492,43.0595703 C375.799156,42.7177717 376.401364,42.4573577 377.036133,42.2783203 C377.670902,42.099283 378.232419,42.0097656 378.720703,42.0097656 C379.274091,42.0097656 379.664712,42.0830071 379.892578,42.2294922 C380.120444,42.3759773 380.234375,42.6282534 380.234375,42.9863281 C380.234375,43.5071641 380.169271,44.6790273 380.039062,46.5019531 C379.908854,48.3248789 379.84375,50.994123 379.84375,54.5097656 L379.84375,75.7011719 C380.657556,74.6920522 381.520178,73.5690166 382.431641,72.3320312 C383.343104,71.0950459 384.254553,69.8011135 385.166016,68.4501953 C386.077479,67.0992771 386.964514,65.7076895 387.827148,64.2753906 C388.689783,62.8430918 389.495439,61.4108145 390.244141,59.9785156 L390.732422,59.0019531 L392.734375,60.515625 L392.246094,61.4921875 C391.46484,63.0546953 390.561529,64.6741453 389.536133,66.3505859 C388.510737,68.0270266 387.436529,69.6708904 386.313477,71.2822266 C385.190424,72.8935627 384.067388,74.4397712 382.944336,75.9208984 C381.821283,77.4020256 380.787765,78.7285098 379.84375,79.9003906 L379.84375,90.4960938 C379.84375,93.4909004 379.575198,96.0380754 379.038086,98.1376953 C378.500974,100.237315 377.768559,101.946282 376.84082,103.264648 C375.913081,104.583014 374.806322,105.535153 373.520508,106.121094 C372.234694,106.707034 370.843106,107 369.345703,107 C367.490225,107 365.944017,106.422206 364.707031,105.266602 C363.470046,104.110997 362.851562,102.524099 362.851562,100.505859 Z M363.730469,77.0195312 C364.739588,77.0195312 365.740555,76.7265654 366.733398,76.140625 C367.726242,75.5546846 368.645829,74.8059941 369.492188,73.8945312 C370.338546,72.9830684 371.095374,71.9821018 371.762695,70.8916016 C372.430016,69.8011013 372.926431,68.7350313 373.251953,67.6933594 L373.251953,53.9238281 C373.251953,52.4589771 373.024091,51.1324929 372.568359,49.9443359 C372.112628,48.756179 371.51042,47.7470745 370.761719,46.9169922 C370.013017,46.0869099 369.158533,45.4440127 368.198242,44.9882812 C367.237951,44.5325498 366.25326,44.3046875 365.244141,44.3046875 C363.681633,44.3046875 362.314459,44.76855 361.142578,45.6962891 C359.970697,46.6240281 358.994145,47.844719 358.212891,49.3583984 C357.431637,50.8720779 356.853843,52.605459 356.479492,54.5585938 C356.105141,56.5117285 355.917969,58.4973857 355.917969,60.515625 C355.917969,63.0221479 356.07259,65.2844951 356.381836,67.3027344 C356.691082,69.3209736 357.171221,71.0543547 357.822266,72.5029297 C358.473311,73.9515046 359.287104,75.0664023 360.263672,75.8476562 C361.240239,76.6289102 362.395827,77.0195312 363.730469,77.0195312 Z M368.808594,104.021484 C369.32943,104.021484 369.858396,103.915691 370.395508,103.704102 C370.93262,103.492512 371.412758,103.012374 371.835938,102.263672 C372.259117,101.51497 372.60091,100.40821 372.861328,98.9433594 C373.121746,97.4785083 373.251953,95.4928511 373.251953,92.9863281 L373.251953,85.7109375 C371.005848,88.4127739 369.174812,90.9762249 367.758789,93.4013672 C366.342766,95.8265095 365.634766,98.0969946 365.634766,100.212891 C365.634766,101.22201 365.911456,102.109046 366.464844,102.874023 C367.018232,103.639001 367.799474,104.021484 368.808594,104.021484 Z M390.244141,61.0039062 L390.732422,59.9785156 C391.220706,59.0019482 391.668292,57.9928438 392.075195,56.9511719 C392.482098,55.9095 392.83203,54.9248093 393.125,53.9970703 C393.41797,53.0693313 393.645833,52.2392615 393.808594,51.5068359 C393.971355,50.7744104 394.085286,50.2128926 394.150391,49.8222656 C393.304032,49.7246089 392.490238,49.5130225 391.708984,49.1875 C390.92773,48.8619775 390.244144,48.4225288 389.658203,47.8691406 C389.072263,47.3157524 388.6084,46.6647173 388.266602,45.9160156 C387.924803,45.167314 387.753906,44.3209683 387.753906,43.3769531 C387.753906,42.6282515 387.884113,41.9609404 388.144531,41.375 C388.404949,40.7890596 388.754881,40.3007832 389.194336,39.9101562 C389.633791,39.5195293 390.122068,39.2184255 390.65918,39.0068359 C391.196292,38.7952463 391.75781,38.6894531 392.34375,38.6894531 C393.125004,38.6894531 393.808591,38.8522119 394.394531,39.1777344 C394.980472,39.5032568 395.468748,39.9345676 395.859375,40.4716797 C396.250002,41.0087917 396.542968,41.6272751 396.738281,42.3271484 C396.933595,43.0270217 397.03125,43.7512983 397.03125,44.5 C397.942713,44.5 398.927404,44.369793 399.985352,44.109375 C401.0433,43.848957 402.10937,43.5641292 403.183594,43.2548828 C404.257818,42.9456365 405.31575,42.6608086 406.357422,42.4003906 C407.399094,42.1399727 408.359371,42.0097656 409.238281,42.0097656 C409.986983,42.0097656 410.58919,42.1643865 411.044922,42.4736328 C411.500653,42.7828792 411.728516,43.2955693 411.728516,44.0117188 C411.728516,44.5325547 411.573895,45.3951763 411.264648,46.5996094 C410.955402,47.8040425 410.572919,49.2037681 410.117188,50.7988281 C409.661456,52.3938882 409.165042,54.1272693 408.62793,55.9990234 C408.090818,57.8707776 407.594403,59.7587795 407.138672,61.6630859 C406.68294,63.5673923 406.300457,65.4147046 405.991211,67.2050781 C405.681965,68.9954517 405.527344,70.5904878 405.527344,71.9902344 C405.527344,73.7480557 405.722654,74.9361948 406.113281,75.5546875 C406.503908,76.1731802 407.203771,76.4824219 408.212891,76.4824219 C408.63607,76.4824219 409.165036,76.2952493 409.799805,75.9208984 C410.434573,75.5465476 411.207678,74.8141331 412.119141,73.7236328 C413.030604,72.6331326 414.112949,71.0706482 415.366211,69.0361328 C416.619472,67.0016174 418.076164,64.3242354 419.736328,61.0039062 L420.224609,59.9785156 L422.226562,61.4921875 L421.738281,62.5175781 C419.785146,66.4238477 418.043627,69.6301958 416.513672,72.1367188 C414.983716,74.6432417 413.575853,76.6288989 412.290039,78.09375 C411.004225,79.5586011 409.791672,80.5758435 408.652344,81.1455078 C407.513015,81.7151721 406.373704,82 405.234375,82 C403.313792,82 401.751308,81.2675854 400.546875,79.8027344 C399.342442,78.3378833 398.740234,76.0755361 398.740234,73.015625 C398.740234,71.3554604 398.968097,69.6302173 399.423828,67.8398438 C399.87956,66.0494702 400.449215,64.2672615 401.132812,62.4931641 C401.81641,60.7190667 402.581376,58.9694097 403.427734,57.2441406 C404.274093,55.5188716 405.079749,53.8831458 405.844727,52.3369141 C406.609704,50.7906824 407.301429,49.3502671 407.919922,48.015625 C408.538415,46.6809829 408.977863,45.5091196 409.238281,44.5 L408.945312,44.2070312 C408.424477,44.2070312 407.724614,44.4837212 406.845703,45.0371094 C405.966792,45.5904976 404.982102,46.2171189 403.891602,46.9169922 C402.801101,47.6168655 401.637376,48.2760386 400.400391,48.8945312 C399.163405,49.5130239 397.910163,49.8873691 396.640625,50.0175781 C396.575521,50.4733096 396.437176,51.1406206 396.225586,52.0195312 C396.013996,52.8984419 395.729168,53.8749946 395.371094,54.9492188 C395.013019,56.0234429 394.606122,57.1302026 394.150391,58.2695312 C393.694659,59.4088599 393.222659,60.4830679 392.734375,61.4921875 L392.246094,62.5175781 L390.244141,61.0039062 Z M392.636719,41.4238281 C392.343749,41.4238281 392.09961,41.5214834 391.904297,41.7167969 C391.708983,41.9121104 391.611328,42.1399727 391.611328,42.4003906 C391.611328,42.7910176 391.708983,43.1246731 391.904297,43.4013672 C392.09961,43.6780613 392.343749,43.9059236 392.636719,44.0849609 C392.929689,44.2639983 393.230793,44.3942053 393.540039,44.4755859 C393.849285,44.5569666 394.117837,44.5976562 394.345703,44.5976562 C394.345703,43.6861934 394.19922,42.929365 393.90625,42.3271484 C393.61328,41.7249319 393.190107,41.4238281 392.636719,41.4238281 Z M449.814453,69.890625 C449.814453,71.746103 449.977212,73.3085874 450.302734,74.578125 C450.628257,75.8476626 451.197913,76.4824219 452.011719,76.4824219 C452.500002,76.4824219 453.028969,76.2464216 453.598633,75.7744141 C454.168297,75.3024065 454.82747,74.5293022 455.576172,73.4550781 C456.324874,72.380854 457.179357,70.9892664 458.139648,69.2802734 C459.09994,67.5712805 460.198562,65.4798301 461.435547,63.0058594 L462.900391,59.9785156 L464.902344,61.4921875 L463.4375,64.5195312 C462.070306,67.2539199 460.792649,69.7034397 459.604492,71.8681641 C458.416335,74.0328884 457.285162,75.8639248 456.210938,77.3613281 C455.136713,78.8587314 454.086919,80.0061809 453.061523,80.8037109 C452.036128,81.601241 451.018885,82 450.009766,82 C448.935542,82 448.03223,81.7070342 447.299805,81.1210938 C446.567379,80.5351533 445.957034,79.7294973 445.46875,78.7041016 C444.980466,77.6787058 444.606121,76.4905667 444.345703,75.1396484 C444.085285,73.7887302 443.90625,72.3483149 443.808594,70.8183594 C443.02734,72.3808672 442.164718,73.8375583 441.220703,75.1884766 C440.276688,76.5393948 439.291997,77.719396 438.266602,78.7285156 C437.241206,79.7376353 436.175136,80.5351533 435.068359,81.1210938 C433.961583,81.7070342 432.854823,82 431.748047,82 C430.120435,82 428.541674,81.6582065 427.011719,80.9746094 C425.481763,80.2910122 424.122727,79.249356 422.93457,77.8496094 C421.746413,76.4498628 420.794274,74.6839299 420.078125,72.5517578 C419.361976,70.4195857 419.003906,67.9049624 419.003906,65.0078125 C419.003906,61.6223789 419.443355,58.521824 420.322266,55.7060547 C421.201176,52.8902854 422.389315,50.4651794 423.886719,48.4306641 C425.384122,46.3961487 427.109365,44.8173884 429.0625,43.6943359 C431.015635,42.5712834 433.066396,42.0097656 435.214844,42.0097656 C436.516934,42.0097656 437.721349,42.3027314 438.828125,42.8886719 C439.934901,43.4746123 440.903316,44.182613 441.733398,45.0126953 C442.563481,45.8427776 443.255206,46.721675 443.808594,47.6494141 C444.361982,48.5771531 444.736327,49.3665332 444.931641,50.0175781 L445.517578,45.28125 C445.582683,44.6627573 445.883786,44.1419292 446.420898,43.71875 C446.95801,43.2955708 447.55208,42.9619153 448.203125,42.7177734 C448.85417,42.4736316 449.488929,42.2945969 450.107422,42.1806641 C450.725915,42.0667312 451.165363,42.0097656 451.425781,42.0097656 C451.816408,42.0097656 452.076822,42.0748691 452.207031,42.2050781 C452.33724,42.3352871 452.402344,42.5957012 452.402344,42.9863281 C452.402344,43.4746118 452.263999,44.4593025 451.987305,45.9404297 C451.710611,47.4215569 451.417645,49.3095588 451.108398,51.6044922 C450.799152,53.8994255 450.506186,56.5930835 450.229492,59.6855469 C449.952798,62.7780103 449.814453,66.1796689 449.814453,69.890625 Z M444.443359,57 C444.443359,55.5025967 444.215497,54.0296296 443.759766,52.5810547 C443.304034,51.1324797 442.685551,49.8466853 441.904297,48.7236328 C441.123043,47.6005803 440.219732,46.697269 439.194336,46.0136719 C438.16894,45.3300747 437.086594,44.9882812 435.947266,44.9882812 C434.547519,44.9882812 433.237311,45.3870403 432.016602,46.1845703 C430.795892,46.9821003 429.73796,48.105136 428.842773,49.5537109 C427.947587,51.0022859 427.239586,52.7438049 426.71875,54.7783203 C426.197914,56.8128357 425.9375,59.050769 425.9375,61.4921875 C425.9375,66.3750244 426.702466,70.0940627 428.232422,72.6494141 C429.762377,75.2047654 431.796862,76.4824219 434.335938,76.4824219 C435.442714,76.4824219 436.590163,76.0348352 437.77832,75.1396484 C438.966477,74.2444617 440.056961,72.9586672 441.049805,71.2822266 C442.042648,69.6057859 442.856442,67.5631631 443.491211,65.1542969 C444.12598,62.7454307 444.443359,60.0273589 444.443359,57 Z M478.818359,45.4765625 C477.874344,45.4765625 476.971033,45.810218 476.108398,46.4775391 C475.245764,47.1448601 474.423832,48.0563093 473.642578,49.2119141 C472.861324,50.3675188 472.104496,51.7184167 471.37207,53.2646484 C470.639645,54.8108801 469.915368,56.4628818 469.199219,58.2207031 L469.199219,58.8066406 C469.101562,61.6712383 469.012045,64.7148276 468.930664,67.9375 C468.849283,71.1601724 468.808594,74.6757622 468.808594,78.484375 C468.808594,79.1354199 468.588869,79.6806619 468.149414,80.1201172 C467.709959,80.5595725 467.197269,80.9176418 466.611328,81.1943359 C466.025388,81.47103 465.42318,81.6744785 464.804688,81.8046875 C464.186195,81.9348965 463.681643,82 463.291016,82 C462.802732,82 462.347007,81.8535171 461.923828,81.5605469 C461.500649,81.2675767 461.289062,80.6165415 461.289062,79.6074219 C461.289062,79.1191382 461.33789,78.5087927 461.435547,77.7763672 C461.533204,77.0439417 461.655273,76.2545615 461.801758,75.4082031 C461.948243,74.5618447 462.111002,73.6910852 462.290039,72.7958984 C462.469076,71.9007117 462.639973,71.0625039 462.802734,70.28125 C462.802734,67.5143091 462.794596,65.0240996 462.77832,62.8105469 C462.762044,60.5969941 462.753906,58.6276128 462.753906,56.9023438 C462.753906,55.1770747 462.745768,53.663418 462.729492,52.3613281 C462.713216,51.0592383 462.705078,49.9362026 462.705078,48.9921875 C462.705078,47.4296797 462.729492,46.2822302 462.77832,45.5498047 C462.827149,44.8173792 462.90039,44.304689 462.998047,44.0117188 C463.160808,43.5559873 463.461912,43.197918 463.901367,42.9375 C464.340823,42.677082 464.804685,42.4736335 465.292969,42.3271484 C465.781252,42.1806633 466.269529,42.091146 466.757812,42.0585938 C467.246096,42.0260415 467.620441,42.0097656 467.880859,42.0097656 C468.499352,42.0097656 468.906249,42.1888003 469.101562,42.546875 C469.296876,42.9049497 469.394531,43.4583296 469.394531,44.2070312 L469.394531,48.796875 C469.394531,50.1640693 469.361979,51.5312432 469.296875,52.8984375 C469.915368,51.4335864 470.639644,50.0419988 471.469727,48.7236328 C472.299809,47.4052668 473.219396,46.2496794 474.228516,45.2568359 C475.237635,44.2639924 476.303705,43.4746123 477.426758,42.8886719 C478.54981,42.3027314 479.713536,42.0097656 480.917969,42.0097656 C482.38282,42.0097656 483.595373,42.3108694 484.555664,42.9130859 C485.515955,43.5153025 486.280922,44.3535103 486.850586,45.4277344 C487.42025,46.5019585 487.843423,47.7633391 488.120117,49.2119141 C488.396811,50.660489 488.583984,52.2311113 488.681641,53.9238281 C489.593104,52.2636636 490.577794,50.7093171 491.635742,49.2607422 C492.69369,47.8121672 493.816726,46.5507866 495.004883,45.4765625 C496.19304,44.4023384 497.446282,43.5559927 498.764648,42.9375 C500.083014,42.3190073 501.458326,42.0097656 502.890625,42.0097656 C505.364596,42.0097656 507.171218,42.7828699 508.310547,44.3291016 C509.449875,45.8753333 510.019531,47.9667837 510.019531,50.6035156 C510.019531,52.2636802 509.889324,54.1191304 509.628906,56.1699219 C509.368488,58.2207134 509.091798,60.2958879 508.798828,62.3955078 C508.505858,64.4951277 508.229168,66.5540264 507.96875,68.5722656 C507.708332,70.5905049 507.578125,72.4296792 507.578125,74.0898438 C507.578125,76.108083 508.082677,77.1171875 509.091797,77.1171875 C509.612633,77.1171875 510.182289,76.7998079 510.800781,76.1650391 C511.419274,75.5302703 512.127275,74.5537175 512.924805,73.2353516 C513.722335,71.9169856 514.65006,70.248708 515.708008,68.2304688 C516.765956,66.2122295 517.994785,63.8033994 519.394531,61.0039062 L519.882812,59.9785156 L521.884766,61.4921875 L521.396484,62.5175781 C519.475902,66.3587432 517.840176,69.5325396 516.489258,72.0390625 C515.13834,74.5455854 513.925787,76.5393806 512.851562,78.0205078 C511.777338,79.501635 510.760096,80.5351533 509.799805,81.1210938 C508.839513,81.7070342 507.773443,82 506.601562,82 C505.917965,82 505.250654,81.9023447 504.599609,81.7070312 C503.948564,81.5117178 503.378909,81.1699243 502.890625,80.6816406 C502.402341,80.1933569 502.01172,79.5341838 501.71875,78.7041016 C501.42578,77.8740193 501.279297,76.8079492 501.279297,75.5058594 C501.279297,73.5527246 501.409504,71.355481 501.669922,68.9140625 C501.93034,66.472644 502.223306,64.0312622 502.548828,61.5898438 C502.874351,59.1484253 503.167316,56.8453884 503.427734,54.6806641 C503.688152,52.5159397 503.818359,50.7500068 503.818359,49.3828125 C503.818359,48.1783794 503.557945,47.2099646 503.037109,46.4775391 C502.516273,45.7451135 501.735031,45.3789062 500.693359,45.3789062 C499.651687,45.3789062 498.569342,45.7858032 497.446289,46.5996094 C496.323237,47.4134155 495.232753,48.4632097 494.174805,49.7490234 C493.116857,51.0348372 492.124028,52.4752524 491.196289,54.0703125 C490.26855,55.6653726 489.462894,57.2441328 488.779297,58.8066406 C488.779297,62.2246265 488.746745,65.2112502 488.681641,67.7666016 C488.616536,70.3219529 488.527019,72.4785068 488.413086,74.2363281 C488.299153,75.9941494 488.144532,77.3857371 487.949219,78.4111328 C487.753905,79.4365286 487.542319,80.1282534 487.314453,80.4863281 C487.151692,80.7141938 486.875002,80.9257803 486.484375,81.1210938 C486.093748,81.3164072 485.662437,81.479166 485.19043,81.609375 C484.718422,81.739584 484.262698,81.8372393 483.823242,81.9023438 C483.383787,81.9674482 483.050131,82 482.822266,82 C482.30143,82 481.853843,81.8453792 481.479492,81.5361328 C481.105141,81.2268865 480.917969,80.616541 480.917969,79.7050781 C480.917969,79.2818989 480.958658,78.7122432 481.040039,77.9960938 C481.12142,77.2799443 481.227213,76.4824263 481.357422,75.6035156 C481.487631,74.724605 481.634114,73.780604 481.796875,72.7714844 C481.959636,71.7623647 482.122395,70.7369844 482.285156,69.6953125 C482.317708,68.7187451 482.35026,67.6282612 482.382812,66.4238281 C482.415365,65.219395 482.447917,64.0231179 482.480469,62.8349609 C482.513021,61.646804 482.537435,60.5074924 482.553711,59.4169922 C482.569987,58.3264919 482.578125,57.3906289 482.578125,56.609375 C482.578125,54.9492104 482.529297,53.4355537 482.431641,52.0683594 C482.333984,50.701165 482.146811,49.5293018 481.870117,48.5527344 C481.593423,47.576167 481.21094,46.8193386 480.722656,46.2822266 C480.234373,45.7451145 479.599613,45.4765625 478.818359,45.4765625 Z" id="Vulcanstagram" fill="#313F4F"></path>
    </g>
</svg>